<?xml version="1.0" encoding="UTF-8" standalone="no"?>
<!DOCTYPE svg PUBLIC "-//W3C//DTD SVG 1.1//EN"
 "http://www.w3.org/Graphics/SVG/1.1/DTD/svg11.dtd">
<!-- Generated by graphviz version 2.40.1 (20161225.0304)
 -->
<!-- Title: dependencies Pages: 1 -->
<svg width="656pt" height="284pt"
 viewBox="0.00 0.00 656.00 284.00" xmlns="http://www.w3.org/2000/svg" xmlns:xlink="http://www.w3.org/1999/xlink">
<g id="graph0" class="graph" transform="scale(1 1) rotate(0) translate(4 280)">
<title>dependencies</title>
<polygon fill="#ffffff" stroke="transparent" points="-4,4 -4,-280 652,-280 652,4 -4,4"/>
<text text-anchor="start" x="303.0091" y="-42.4" font-family="sans-serif" font-weight="bold" font-size="14.00" fill="#000000">Legend</text>
<polygon fill="#ffffb3" stroke="transparent" points="90,-10 90,-30 110,-30 110,-10 90,-10"/>
<text text-anchor="start" x="113.629" y="-15.4" font-family="sans-serif" font-size="14.00" fill="#000000"> &#160;Declarations</text>
<polygon fill="#8dd3c7" stroke="transparent" points="203,-10 203,-30 223,-30 223,-10 203,-10"/>
<text text-anchor="start" x="226.7251" y="-15.4" font-family="sans-serif" font-size="14.00" fill="#000000"> &#160;Module</text>
<polygon fill="#80b1d3" stroke="transparent" points="289,-10 289,-30 309,-30 309,-10 289,-10"/>
<text text-anchor="start" x="312.7812" y="-15.4" font-family="sans-serif" font-size="14.00" fill="#000000"> &#160;Bootstrap</text>
<polygon fill="#fdb462" stroke="transparent" points="386,-10 386,-30 406,-30 406,-10 386,-10"/>
<text text-anchor="start" x="409.6732" y="-15.4" font-family="sans-serif" font-size="14.00" fill="#000000"> &#160;Providers</text>
<polygon fill="#fb8072" stroke="transparent" points="482,-10 482,-30 502,-30 502,-10 482,-10"/>
<text text-anchor="start" x="505.7258" y="-15.4" font-family="sans-serif" font-size="14.00" fill="#000000"> &#160;Exports</text>
<g id="clust1" class="cluster">
<title>cluster_ComptabiliteModule</title>
<polygon fill="none" stroke="#000000" stroke-dasharray="1,5" points="8,-70 8,-268 640,-268 640,-70 8,-70"/>
</g>
<g id="clust2" class="cluster">
<title>cluster_ComptabiliteModule_declarations</title>
<polygon fill="none" stroke="#000000" points="462,-78 462,-130 632,-130 632,-78 462,-78"/>
</g>
<g id="clust4" class="cluster">
<title>cluster_ComptabiliteModule_imports</title>
<polygon fill="none" stroke="#000000" points="16,-78 16,-130 454,-130 454,-78 16,-78"/>
</g>
<g id="clust5" class="cluster">
<title>cluster_ComptabiliteModule_exports</title>
<polygon fill="none" stroke="#000000" points="175,-208 175,-260 469,-260 469,-208 175,-208"/>
</g>
<!-- ComptabiliteComponent -->
<g id="node1" class="node">
<title>ComptabiliteComponent</title>
<polygon fill="#ffffb3" stroke="#000000" points="624.4424,-122 469.5576,-122 469.5576,-86 624.4424,-86 624.4424,-122"/>
<text text-anchor="middle" x="547" y="-99.8" font-family="Times,serif" font-size="14.00" fill="#000000">ComptabiliteComponent</text>
</g>
<!-- ComptabiliteModule -->
<g id="node2" class="node">
<title>ComptabiliteModule</title>
<polygon fill="#8dd3c7" stroke="#000000" points="374.1596,-187 371.1596,-191 350.1596,-191 347.1596,-187 241.8404,-187 241.8404,-151 374.1596,-151 374.1596,-187"/>
<text text-anchor="middle" x="308" y="-164.8" font-family="Times,serif" font-size="14.00" fill="#000000">ComptabiliteModule</text>
</g>
<!-- ComptabiliteComponent&#45;&gt;ComptabiliteModule -->
<g id="edge1" class="edge">
<title>ComptabiliteComponent&#45;&gt;ComptabiliteModule</title>
<path fill="none" stroke="#000000" d="M547,-122.1061C547,-141.3391 547,-169 547,-169 547,-169 384.2574,-169 384.2574,-169"/>
<polygon fill="#000000" stroke="#000000" points="384.2575,-165.5001 374.2574,-169 384.2574,-172.5001 384.2575,-165.5001"/>
</g>
<!-- ComptabiliteComponent  -->
<g id="node6" class="node">
<title>ComptabiliteComponent </title>
<polygon fill="#fb8072" stroke="#000000" points="460.9418,-252 303.0582,-252 303.0582,-216 460.9418,-216 460.9418,-252"/>
<text text-anchor="middle" x="382" y="-229.8" font-family="Times,serif" font-size="14.00" fill="#000000">ComptabiliteComponent </text>
</g>
<!-- ComptabiliteModule&#45;&gt;ComptabiliteComponent  -->
<g id="edge5" class="edge">
<title>ComptabiliteModule&#45;&gt;ComptabiliteComponent </title>
<path fill="none" stroke="#000000" stroke-dasharray="5,2" d="M338.6794,-187.1061C338.6794,-187.1061 338.6794,-205.991 338.6794,-205.991"/>
<polygon fill="#000000" stroke="#000000" points="335.1794,-205.9909 338.6794,-215.991 342.1794,-205.991 335.1794,-205.9909"/>
</g>
<!-- RouterModule  -->
<g id="node7" class="node">
<title>RouterModule </title>
<polygon fill="#fb8072" stroke="#000000" points="284.6523,-252 183.3477,-252 183.3477,-216 284.6523,-216 284.6523,-252"/>
<text text-anchor="middle" x="234" y="-229.8" font-family="Times,serif" font-size="14.00" fill="#000000">RouterModule </text>
</g>
<!-- ComptabiliteModule&#45;&gt;RouterModule  -->
<g id="edge6" class="edge">
<title>ComptabiliteModule&#45;&gt;RouterModule </title>
<path fill="none" stroke="#000000" stroke-dasharray="5,2" d="M263.1233,-187.1061C263.1233,-187.1061 263.1233,-205.991 263.1233,-205.991"/>
<polygon fill="#000000" stroke="#000000" points="259.6233,-205.9909 263.1233,-215.991 266.6233,-205.991 259.6233,-205.9909"/>
</g>
<!-- CommonModule -->
<g id="node3" class="node">
<title>CommonModule</title>
<polygon fill="#8dd3c7" stroke="#000000" points="445.6681,-122 442.6681,-126 421.6681,-126 418.6681,-122 334.3319,-122 334.3319,-86 445.6681,-86 445.6681,-122"/>
<text text-anchor="middle" x="390" y="-99.8" font-family="Times,serif" font-size="14.00" fill="#000000">CommonModule</text>
</g>
<!-- CommonModule&#45;&gt;ComptabiliteModule -->
<g id="edge2" class="edge">
<title>CommonModule&#45;&gt;ComptabiliteModule</title>
<path fill="none" stroke="#000000" d="M354.2479,-122.1061C354.2479,-122.1061 354.2479,-140.991 354.2479,-140.991"/>
<polygon fill="#000000" stroke="#000000" points="350.748,-140.9909 354.2479,-150.991 357.748,-140.991 350.748,-140.9909"/>
</g>
<!-- ComptabiliteRoutingModule -->
<g id="node4" class="node">
<title>ComptabiliteRoutingModule</title>
<polygon fill="#8dd3c7" stroke="#000000" points="315.7771,-122 312.7771,-126 291.7771,-126 288.7771,-122 138.2229,-122 138.2229,-86 315.7771,-86 315.7771,-122"/>
<text text-anchor="middle" x="227" y="-99.8" font-family="Times,serif" font-size="14.00" fill="#000000">ComptabiliteRoutingModule</text>
</g>
<!-- ComptabiliteRoutingModule&#45;&gt;ComptabiliteModule -->
<g id="edge3" class="edge">
<title>ComptabiliteRoutingModule&#45;&gt;ComptabiliteModule</title>
<path fill="none" stroke="#000000" d="M278.7795,-122.1061C278.7795,-122.1061 278.7795,-140.991 278.7795,-140.991"/>
<polygon fill="#000000" stroke="#000000" points="275.2795,-140.9909 278.7795,-150.991 282.2795,-140.991 275.2795,-140.9909"/>
</g>
<!-- FormsModule -->
<g id="node5" class="node">
<title>FormsModule</title>
<polygon fill="#8dd3c7" stroke="#000000" points="119.8288,-122 116.8288,-126 95.8288,-126 92.8288,-122 24.1712,-122 24.1712,-86 119.8288,-86 119.8288,-122"/>
<text text-anchor="middle" x="72" y="-99.8" font-family="Times,serif" font-size="14.00" fill="#000000">FormsModule</text>
</g>
<!-- FormsModule&#45;&gt;ComptabiliteModule -->
<g id="edge4" class="edge">
<title>FormsModule&#45;&gt;ComptabiliteModule</title>
<path fill="none" stroke="#000000" d="M72,-122.1061C72,-141.3391 72,-169 72,-169 72,-169 231.6328,-169 231.6328,-169"/>
<polygon fill="#000000" stroke="#000000" points="231.6328,-172.5001 241.6328,-169 231.6328,-165.5001 231.6328,-172.5001"/>
</g>
</g>
</svg>
