<?xml version="1.0" encoding="UTF-8" standalone="no"?>
<!DOCTYPE svg PUBLIC "-//W3C//DTD SVG 1.1//EN"
 "http://www.w3.org/Graphics/SVG/1.1/DTD/svg11.dtd">
<!-- Generated by graphviz version 2.40.1 (20161225.0304)
 -->
<!-- Title: dependencies Pages: 1 -->
<svg width="504pt" height="211pt"
 viewBox="0.00 0.00 504.00 211.00" xmlns="http://www.w3.org/2000/svg" xmlns:xlink="http://www.w3.org/1999/xlink">
<g id="graph0" class="graph" transform="scale(1 1) rotate(0) translate(4 207)">
<title>dependencies</title>
<polygon fill="#ffffff" stroke="transparent" points="-4,4 -4,-207 500,-207 500,4 -4,4"/>
<text text-anchor="start" x="227.0091" y="-42.4" font-family="sans-serif" font-weight="bold" font-size="14.00" fill="#000000">Legend</text>
<polygon fill="#ffffb3" stroke="transparent" points="14,-10 14,-30 34,-30 34,-10 14,-10"/>
<text text-anchor="start" x="37.629" y="-15.4" font-family="sans-serif" font-size="14.00" fill="#000000"> &#160;Declarations</text>
<polygon fill="#8dd3c7" stroke="transparent" points="127,-10 127,-30 147,-30 147,-10 127,-10"/>
<text text-anchor="start" x="150.7251" y="-15.4" font-family="sans-serif" font-size="14.00" fill="#000000"> &#160;Module</text>
<polygon fill="#80b1d3" stroke="transparent" points="213,-10 213,-30 233,-30 233,-10 213,-10"/>
<text text-anchor="start" x="236.7812" y="-15.4" font-family="sans-serif" font-size="14.00" fill="#000000"> &#160;Bootstrap</text>
<polygon fill="#fdb462" stroke="transparent" points="310,-10 310,-30 330,-30 330,-10 310,-10"/>
<text text-anchor="start" x="333.6732" y="-15.4" font-family="sans-serif" font-size="14.00" fill="#000000"> &#160;Providers</text>
<polygon fill="#fb8072" stroke="transparent" points="406,-10 406,-30 426,-30 426,-10 406,-10"/>
<text text-anchor="start" x="429.7258" y="-15.4" font-family="sans-serif" font-size="14.00" fill="#000000"> &#160;Exports</text>
<g id="clust1" class="cluster">
<title>cluster_GestionstocksModule</title>
<polygon fill="none" stroke="#000000" stroke-dasharray="1,5" points="97,-70 97,-195 399,-195 399,-70 97,-70"/>
</g>
<g id="clust2" class="cluster">
<title>cluster_GestionstocksModule_declarations</title>
<polygon fill="none" stroke="#000000" points="215,-78 215,-130 391,-130 391,-78 215,-78"/>
</g>
<g id="clust4" class="cluster">
<title>cluster_GestionstocksModule_imports</title>
<polygon fill="none" stroke="#000000" points="105,-78 105,-130 207,-130 207,-78 105,-78"/>
</g>
<!-- GestionstocksComponent -->
<g id="node1" class="node">
<title>GestionstocksComponent</title>
<polygon fill="#ffffb3" stroke="#000000" points="382.8738,-122 223.1262,-122 223.1262,-86 382.8738,-86 382.8738,-122"/>
<text text-anchor="middle" x="303" y="-99.8" font-family="Times,serif" font-size="14.00" fill="#000000">GestionstocksComponent</text>
</g>
<!-- GestionstocksModule -->
<g id="node2" class="node">
<title>GestionstocksModule</title>
<polygon fill="#8dd3c7" stroke="#000000" points="307.0912,-187 304.0912,-191 283.0912,-191 280.0912,-187 168.9088,-187 168.9088,-151 307.0912,-151 307.0912,-187"/>
<text text-anchor="middle" x="238" y="-164.8" font-family="Times,serif" font-size="14.00" fill="#000000">GestionstocksModule</text>
</g>
<!-- GestionstocksComponent&#45;&gt;GestionstocksModule -->
<g id="edge1" class="edge">
<title>GestionstocksComponent&#45;&gt;GestionstocksModule</title>
<path fill="none" stroke="#000000" d="M265.0544,-122.1061C265.0544,-122.1061 265.0544,-140.991 265.0544,-140.991"/>
<polygon fill="#000000" stroke="#000000" points="261.5544,-140.9909 265.0544,-150.991 268.5544,-140.991 261.5544,-140.9909"/>
</g>
<!-- CoreModule -->
<g id="node3" class="node">
<title>CoreModule</title>
<polygon fill="#8dd3c7" stroke="#000000" points="199.2619,-122 196.2619,-126 175.2619,-126 172.2619,-122 112.7381,-122 112.7381,-86 199.2619,-86 199.2619,-122"/>
<text text-anchor="middle" x="156" y="-99.8" font-family="Times,serif" font-size="14.00" fill="#000000">CoreModule</text>
</g>
<!-- CoreModule&#45;&gt;GestionstocksModule -->
<g id="edge2" class="edge">
<title>CoreModule&#45;&gt;GestionstocksModule</title>
<path fill="none" stroke="#000000" d="M184.1676,-122.1061C184.1676,-122.1061 184.1676,-140.991 184.1676,-140.991"/>
<polygon fill="#000000" stroke="#000000" points="180.6677,-140.9909 184.1676,-150.991 187.6677,-140.991 180.6677,-140.9909"/>
</g>
</g>
</svg>
