<?xml version="1.0" encoding="UTF-8" standalone="no"?>
<!DOCTYPE svg PUBLIC "-//W3C//DTD SVG 1.1//EN"
 "http://www.w3.org/Graphics/SVG/1.1/DTD/svg11.dtd">
<!-- Generated by graphviz version 2.40.1 (20161225.0304)
 -->
<!-- Title: dependencies Pages: 1 -->
<svg width="966pt" height="284pt"
 viewBox="0.00 0.00 966.00 284.00" xmlns="http://www.w3.org/2000/svg" xmlns:xlink="http://www.w3.org/1999/xlink">
<g id="graph0" class="graph" transform="scale(1 1) rotate(0) translate(4 280)">
<title>dependencies</title>
<polygon fill="#ffffff" stroke="transparent" points="-4,4 -4,-280 962,-280 962,4 -4,4"/>
<text text-anchor="start" x="458.0091" y="-42.4" font-family="sans-serif" font-weight="bold" font-size="14.00" fill="#000000">Legend</text>
<polygon fill="#ffffb3" stroke="transparent" points="245,-10 245,-30 265,-30 265,-10 245,-10"/>
<text text-anchor="start" x="268.629" y="-15.4" font-family="sans-serif" font-size="14.00" fill="#000000"> &#160;Declarations</text>
<polygon fill="#8dd3c7" stroke="transparent" points="358,-10 358,-30 378,-30 378,-10 358,-10"/>
<text text-anchor="start" x="381.7251" y="-15.4" font-family="sans-serif" font-size="14.00" fill="#000000"> &#160;Module</text>
<polygon fill="#80b1d3" stroke="transparent" points="444,-10 444,-30 464,-30 464,-10 444,-10"/>
<text text-anchor="start" x="467.7812" y="-15.4" font-family="sans-serif" font-size="14.00" fill="#000000"> &#160;Bootstrap</text>
<polygon fill="#fdb462" stroke="transparent" points="541,-10 541,-30 561,-30 561,-10 541,-10"/>
<text text-anchor="start" x="564.6732" y="-15.4" font-family="sans-serif" font-size="14.00" fill="#000000"> &#160;Providers</text>
<polygon fill="#fb8072" stroke="transparent" points="637,-10 637,-30 657,-30 657,-10 637,-10"/>
<text text-anchor="start" x="660.7258" y="-15.4" font-family="sans-serif" font-size="14.00" fill="#000000"> &#160;Exports</text>
<g id="clust1" class="cluster">
<title>cluster_GestionstocksModule</title>
<polygon fill="none" stroke="#000000" stroke-dasharray="1,5" points="8,-70 8,-268 950,-268 950,-70 8,-70"/>
</g>
<g id="clust2" class="cluster">
<title>cluster_GestionstocksModule_declarations</title>
<polygon fill="none" stroke="#000000" points="468,-78 468,-130 942,-130 942,-78 468,-78"/>
</g>
<g id="clust7" class="cluster">
<title>cluster_GestionstocksModule_imports</title>
<polygon fill="none" stroke="#000000" points="16,-78 16,-130 460,-130 460,-78 16,-78"/>
</g>
<g id="clust8" class="cluster">
<title>cluster_GestionstocksModule_exports</title>
<polygon fill="none" stroke="#000000" points="262,-208 262,-260 867,-260 867,-208 262,-208"/>
</g>
<!-- GestionstocksComponent -->
<g id="node1" class="node">
<title>GestionstocksComponent</title>
<polygon fill="#ffffb3" stroke="#000000" points="933.8738,-122 774.1262,-122 774.1262,-86 933.8738,-86 933.8738,-122"/>
<text text-anchor="middle" x="854" y="-99.8" font-family="Times,serif" font-size="14.00" fill="#000000">GestionstocksComponent</text>
</g>
<!-- GestionstocksModule -->
<g id="node5" class="node">
<title>GestionstocksModule</title>
<polygon fill="#8dd3c7" stroke="#000000" points="581.0912,-187 578.0912,-191 557.0912,-191 554.0912,-187 442.9088,-187 442.9088,-151 581.0912,-151 581.0912,-187"/>
<text text-anchor="middle" x="512" y="-164.8" font-family="Times,serif" font-size="14.00" fill="#000000">GestionstocksModule</text>
</g>
<!-- GestionstocksComponent&#45;&gt;GestionstocksModule -->
<g id="edge1" class="edge">
<title>GestionstocksComponent&#45;&gt;GestionstocksModule</title>
<path fill="none" stroke="#000000" d="M816.375,-122.1061C816.375,-141.3391 816.375,-169 816.375,-169 816.375,-169 591.0674,-169 591.0674,-169"/>
<polygon fill="#000000" stroke="#000000" points="591.0674,-165.5001 581.0674,-169 591.0674,-172.5001 591.0674,-165.5001"/>
</g>
<!-- OrderByPipe -->
<g id="node2" class="node">
<title>OrderByPipe</title>
<polygon fill="#ffffb3" stroke="#000000" points="755.8669,-122 666.1331,-122 666.1331,-86 755.8669,-86 755.8669,-122"/>
<text text-anchor="middle" x="711" y="-99.8" font-family="Times,serif" font-size="14.00" fill="#000000">OrderByPipe</text>
</g>
<!-- OrderByPipe&#45;&gt;GestionstocksModule -->
<g id="edge2" class="edge">
<title>OrderByPipe&#45;&gt;GestionstocksModule</title>
<path fill="none" stroke="#000000" d="M671.8213,-122.027C671.8213,-138.3976 671.8213,-160 671.8213,-160 671.8213,-160 591.1704,-160 591.1704,-160"/>
<polygon fill="#000000" stroke="#000000" points="591.1705,-156.5001 581.1704,-160 591.1704,-163.5001 591.1705,-156.5001"/>
</g>
<!-- UniquePipe -->
<g id="node3" class="node">
<title>UniquePipe</title>
<polygon fill="#ffffb3" stroke="#000000" points="648.0997,-122 565.9003,-122 565.9003,-86 648.0997,-86 648.0997,-122"/>
<text text-anchor="middle" x="607" y="-99.8" font-family="Times,serif" font-size="14.00" fill="#000000">UniquePipe</text>
</g>
<!-- UniquePipe&#45;&gt;GestionstocksModule -->
<g id="edge3" class="edge">
<title>UniquePipe&#45;&gt;GestionstocksModule</title>
<path fill="none" stroke="#000000" d="M573.4979,-122.1061C573.4979,-122.1061 573.4979,-140.991 573.4979,-140.991"/>
<polygon fill="#000000" stroke="#000000" points="569.998,-140.9909 573.4979,-150.991 576.998,-140.991 569.998,-140.9909"/>
</g>
<!-- FilterPipe -->
<g id="node4" class="node">
<title>FilterPipe</title>
<polygon fill="#ffffb3" stroke="#000000" points="547.7177,-122 476.2823,-122 476.2823,-86 547.7177,-86 547.7177,-122"/>
<text text-anchor="middle" x="512" y="-99.8" font-family="Times,serif" font-size="14.00" fill="#000000">FilterPipe</text>
</g>
<!-- FilterPipe&#45;&gt;GestionstocksModule -->
<g id="edge4" class="edge">
<title>FilterPipe&#45;&gt;GestionstocksModule</title>
<path fill="none" stroke="#000000" d="M512,-122.1061C512,-122.1061 512,-140.991 512,-140.991"/>
<polygon fill="#000000" stroke="#000000" points="508.5001,-140.9909 512,-150.991 515.5001,-140.991 508.5001,-140.9909"/>
</g>
<!-- GestionstocksComponent  -->
<g id="node9" class="node">
<title>GestionstocksComponent </title>
<polygon fill="#fb8072" stroke="#000000" points="858.8742,-252 695.1258,-252 695.1258,-216 858.8742,-216 858.8742,-252"/>
<text text-anchor="middle" x="777" y="-229.8" font-family="Times,serif" font-size="14.00" fill="#000000">GestionstocksComponent </text>
</g>
<!-- GestionstocksModule&#45;&gt;GestionstocksComponent  -->
<g id="edge8" class="edge">
<title>GestionstocksModule&#45;&gt;GestionstocksComponent </title>
<path fill="none" stroke="#000000" stroke-dasharray="5,2" d="M581.0623,-178C643.4754,-178 725.6233,-178 725.6233,-178 725.6233,-178 725.6233,-205.973 725.6233,-205.973"/>
<polygon fill="#000000" stroke="#000000" points="722.1233,-205.973 725.6233,-215.973 729.1233,-205.973 722.1233,-205.973"/>
</g>
<!-- RouterModule  -->
<g id="node10" class="node">
<title>RouterModule </title>
<polygon fill="#fb8072" stroke="#000000" points="677.6523,-252 576.3477,-252 576.3477,-216 677.6523,-216 677.6523,-252"/>
<text text-anchor="middle" x="627" y="-229.8" font-family="Times,serif" font-size="14.00" fill="#000000">RouterModule </text>
</g>
<!-- GestionstocksModule&#45;&gt;RouterModule  -->
<g id="edge9" class="edge">
<title>GestionstocksModule&#45;&gt;RouterModule </title>
<path fill="none" stroke="#000000" stroke-dasharray="5,2" d="M567.5537,-187.1061C567.5537,-206.3391 567.5537,-234 567.5537,-234 567.5537,-234 568.4308,-234 568.4308,-234"/>
<polygon fill="#000000" stroke="#000000" points="566.3252,-237.5001 576.3252,-234 566.3251,-230.5001 566.3252,-237.5001"/>
</g>
<!-- OrderByPipe  -->
<g id="node11" class="node">
<title>OrderByPipe </title>
<polygon fill="#fb8072" stroke="#000000" points="558.8675,-252 465.1325,-252 465.1325,-216 558.8675,-216 558.8675,-252"/>
<text text-anchor="middle" x="512" y="-229.8" font-family="Times,serif" font-size="14.00" fill="#000000">OrderByPipe </text>
</g>
<!-- GestionstocksModule&#45;&gt;OrderByPipe  -->
<g id="edge10" class="edge">
<title>GestionstocksModule&#45;&gt;OrderByPipe </title>
<path fill="none" stroke="#000000" stroke-dasharray="5,2" d="M512,-187.1061C512,-187.1061 512,-205.991 512,-205.991"/>
<polygon fill="#000000" stroke="#000000" points="508.5001,-205.9909 512,-215.991 515.5001,-205.991 508.5001,-205.9909"/>
</g>
<!-- UniquePipe  -->
<g id="node12" class="node">
<title>UniquePipe </title>
<polygon fill="#fb8072" stroke="#000000" points="447.6005,-252 362.3995,-252 362.3995,-216 447.6005,-216 447.6005,-252"/>
<text text-anchor="middle" x="405" y="-229.8" font-family="Times,serif" font-size="14.00" fill="#000000">UniquePipe </text>
</g>
<!-- GestionstocksModule&#45;&gt;UniquePipe  -->
<g id="edge11" class="edge">
<title>GestionstocksModule&#45;&gt;UniquePipe </title>
<path fill="none" stroke="#000000" stroke-dasharray="5,2" d="M456.5582,-187.1061C456.5582,-206.3391 456.5582,-234 456.5582,-234 456.5582,-234 455.7068,-234 455.7068,-234"/>
<polygon fill="#000000" stroke="#000000" points="458.0445,-230.5001 448.0444,-234 458.0444,-237.5001 458.0445,-230.5001"/>
</g>
<!-- FilterPipe  -->
<g id="node13" class="node">
<title>FilterPipe </title>
<polygon fill="#fb8072" stroke="#000000" points="344.2179,-252 269.7821,-252 269.7821,-216 344.2179,-216 344.2179,-252"/>
<text text-anchor="middle" x="307" y="-229.8" font-family="Times,serif" font-size="14.00" fill="#000000">FilterPipe </text>
</g>
<!-- GestionstocksModule&#45;&gt;FilterPipe  -->
<g id="edge12" class="edge">
<title>GestionstocksModule&#45;&gt;FilterPipe </title>
<path fill="none" stroke="#000000" stroke-dasharray="5,2" d="M442.6976,-178C391.7718,-178 331.4152,-178 331.4152,-178 331.4152,-178 331.4152,-205.973 331.4152,-205.973"/>
<polygon fill="#000000" stroke="#000000" points="327.9152,-205.973 331.4152,-215.973 334.9152,-205.973 327.9152,-205.973"/>
</g>
<!-- CommonModule -->
<g id="node6" class="node">
<title>CommonModule</title>
<polygon fill="#8dd3c7" stroke="#000000" points="451.6681,-122 448.6681,-126 427.6681,-126 424.6681,-122 340.3319,-122 340.3319,-86 451.6681,-86 451.6681,-122"/>
<text text-anchor="middle" x="396" y="-99.8" font-family="Times,serif" font-size="14.00" fill="#000000">CommonModule</text>
</g>
<!-- CommonModule&#45;&gt;GestionstocksModule -->
<g id="edge5" class="edge">
<title>CommonModule&#45;&gt;GestionstocksModule</title>
<path fill="none" stroke="#000000" d="M447.3941,-122.1061C447.3941,-122.1061 447.3941,-140.991 447.3941,-140.991"/>
<polygon fill="#000000" stroke="#000000" points="443.8942,-140.9909 447.3941,-150.991 450.8942,-140.991 443.8942,-140.9909"/>
</g>
<!-- FormsModule -->
<g id="node7" class="node">
<title>FormsModule</title>
<polygon fill="#8dd3c7" stroke="#000000" points="322.8288,-122 319.8288,-126 298.8288,-126 295.8288,-122 227.1712,-122 227.1712,-86 322.8288,-86 322.8288,-122"/>
<text text-anchor="middle" x="275" y="-99.8" font-family="Times,serif" font-size="14.00" fill="#000000">FormsModule</text>
</g>
<!-- FormsModule&#45;&gt;GestionstocksModule -->
<g id="edge6" class="edge">
<title>FormsModule&#45;&gt;GestionstocksModule</title>
<path fill="none" stroke="#000000" d="M296.1527,-122.027C296.1527,-138.3976 296.1527,-160 296.1527,-160 296.1527,-160 432.8139,-160 432.8139,-160"/>
<polygon fill="#000000" stroke="#000000" points="432.814,-163.5001 442.8139,-160 432.8139,-156.5001 432.814,-163.5001"/>
</g>
<!-- GestionStocksRoutingModule -->
<g id="node8" class="node">
<title>GestionStocksRoutingModule</title>
<polygon fill="#8dd3c7" stroke="#000000" points="209.5476,-122 206.5476,-126 185.5476,-126 182.5476,-122 24.4524,-122 24.4524,-86 209.5476,-86 209.5476,-122"/>
<text text-anchor="middle" x="117" y="-99.8" font-family="Times,serif" font-size="14.00" fill="#000000">GestionStocksRoutingModule</text>
</g>
<!-- GestionStocksRoutingModule&#45;&gt;GestionstocksModule -->
<g id="edge7" class="edge">
<title>GestionStocksRoutingModule&#45;&gt;GestionstocksModule</title>
<path fill="none" stroke="#000000" d="M117,-122.1061C117,-141.3391 117,-169 117,-169 117,-169 432.7442,-169 432.7442,-169"/>
<polygon fill="#000000" stroke="#000000" points="432.7443,-172.5001 442.7442,-169 432.7442,-165.5001 432.7443,-172.5001"/>
</g>
</g>
</svg>
