<?xml version="1.0" encoding="UTF-8" standalone="no"?>
<!DOCTYPE svg PUBLIC "-//W3C//DTD SVG 1.1//EN"
 "http://www.w3.org/Graphics/SVG/1.1/DTD/svg11.dtd">
<!-- Generated by graphviz version 2.40.1 (20161225.0304)
 -->
<!-- Title: dependencies Pages: 1 -->
<svg width="838pt" height="284pt"
 viewBox="0.00 0.00 838.00 284.00" xmlns="http://www.w3.org/2000/svg" xmlns:xlink="http://www.w3.org/1999/xlink">
<g id="graph0" class="graph" transform="scale(1 1) rotate(0) translate(4 280)">
<title>dependencies</title>
<polygon fill="#ffffff" stroke="transparent" points="-4,4 -4,-280 834,-280 834,4 -4,4"/>
<text text-anchor="start" x="394.0091" y="-42.4" font-family="sans-serif" font-weight="bold" font-size="14.00" fill="#000000">Legend</text>
<polygon fill="#ffffb3" stroke="transparent" points="181,-10 181,-30 201,-30 201,-10 181,-10"/>
<text text-anchor="start" x="204.629" y="-15.4" font-family="sans-serif" font-size="14.00" fill="#000000"> &#160;Declarations</text>
<polygon fill="#8dd3c7" stroke="transparent" points="294,-10 294,-30 314,-30 314,-10 294,-10"/>
<text text-anchor="start" x="317.7251" y="-15.4" font-family="sans-serif" font-size="14.00" fill="#000000"> &#160;Module</text>
<polygon fill="#80b1d3" stroke="transparent" points="380,-10 380,-30 400,-30 400,-10 380,-10"/>
<text text-anchor="start" x="403.7812" y="-15.4" font-family="sans-serif" font-size="14.00" fill="#000000"> &#160;Bootstrap</text>
<polygon fill="#fdb462" stroke="transparent" points="477,-10 477,-30 497,-30 497,-10 477,-10"/>
<text text-anchor="start" x="500.6732" y="-15.4" font-family="sans-serif" font-size="14.00" fill="#000000"> &#160;Providers</text>
<polygon fill="#fb8072" stroke="transparent" points="573,-10 573,-30 593,-30 593,-10 573,-10"/>
<text text-anchor="start" x="596.7258" y="-15.4" font-family="sans-serif" font-size="14.00" fill="#000000"> &#160;Exports</text>
<g id="clust1" class="cluster">
<title>cluster_CoreModule</title>
<polygon fill="none" stroke="#000000" stroke-dasharray="1,5" points="8,-70 8,-268 822,-268 822,-70 8,-70"/>
</g>
<g id="clust2" class="cluster">
<title>cluster_CoreModule_declarations</title>
<polygon fill="none" stroke="#000000" points="390,-78 390,-130 814,-130 814,-78 390,-78"/>
</g>
<g id="clust6" class="cluster">
<title>cluster_CoreModule_imports</title>
<polygon fill="none" stroke="#000000" points="234,-78 234,-130 382,-130 382,-78 234,-78"/>
</g>
<g id="clust7" class="cluster">
<title>cluster_CoreModule_exports</title>
<polygon fill="none" stroke="#000000" points="240,-208 240,-260 675,-260 675,-208 240,-208"/>
</g>
<g id="clust9" class="cluster">
<title>cluster_CoreModule_providers</title>
<polygon fill="none" stroke="#000000" points="16,-78 16,-130 226,-130 226,-78 16,-78"/>
</g>
<!-- AdminComponent -->
<g id="node1" class="node">
<title>AdminComponent</title>
<polygon fill="#ffffb3" stroke="#000000" points="806.2204,-122 685.7796,-122 685.7796,-86 806.2204,-86 806.2204,-122"/>
<text text-anchor="middle" x="746" y="-99.8" font-family="Times,serif" font-size="14.00" fill="#000000">AdminComponent</text>
</g>
<!-- CoreModule -->
<g id="node4" class="node">
<title>CoreModule</title>
<polygon fill="#8dd3c7" stroke="#000000" points="498.2619,-187 495.2619,-191 474.2619,-191 471.2619,-187 411.7381,-187 411.7381,-151 498.2619,-151 498.2619,-187"/>
<text text-anchor="middle" x="455" y="-164.8" font-family="Times,serif" font-size="14.00" fill="#000000">CoreModule</text>
</g>
<!-- AdminComponent&#45;&gt;CoreModule -->
<g id="edge1" class="edge">
<title>AdminComponent&#45;&gt;CoreModule</title>
<path fill="none" stroke="#000000" d="M746,-122.1061C746,-141.3391 746,-169 746,-169 746,-169 508.5656,-169 508.5656,-169"/>
<polygon fill="#000000" stroke="#000000" points="508.5657,-165.5001 498.5656,-169 508.5656,-172.5001 508.5657,-165.5001"/>
</g>
<!-- EmployesComponent -->
<g id="node2" class="node">
<title>EmployesComponent</title>
<polygon fill="#ffffb3" stroke="#000000" points="667.8258,-122 530.1742,-122 530.1742,-86 667.8258,-86 667.8258,-122"/>
<text text-anchor="middle" x="599" y="-99.8" font-family="Times,serif" font-size="14.00" fill="#000000">EmployesComponent</text>
</g>
<!-- EmployesComponent&#45;&gt;CoreModule -->
<g id="edge2" class="edge">
<title>EmployesComponent&#45;&gt;CoreModule</title>
<path fill="none" stroke="#000000" d="M536.7386,-122.027C536.7386,-138.3976 536.7386,-160 536.7386,-160 536.7386,-160 508.2628,-160 508.2628,-160"/>
<polygon fill="#000000" stroke="#000000" points="508.2628,-156.5001 498.2628,-160 508.2627,-163.5001 508.2628,-156.5001"/>
</g>
<!-- LoginComponent -->
<g id="node3" class="node">
<title>LoginComponent</title>
<polygon fill="#ffffb3" stroke="#000000" points="512.2758,-122 397.7242,-122 397.7242,-86 512.2758,-86 512.2758,-122"/>
<text text-anchor="middle" x="455" y="-99.8" font-family="Times,serif" font-size="14.00" fill="#000000">LoginComponent</text>
</g>
<!-- LoginComponent&#45;&gt;CoreModule -->
<g id="edge3" class="edge">
<title>LoginComponent&#45;&gt;CoreModule</title>
<path fill="none" stroke="#000000" d="M455,-122.1061C455,-122.1061 455,-140.991 455,-140.991"/>
<polygon fill="#000000" stroke="#000000" points="451.5001,-140.9909 455,-150.991 458.5001,-140.991 451.5001,-140.9909"/>
</g>
<!-- AdminComponent  -->
<g id="node6" class="node">
<title>AdminComponent </title>
<polygon fill="#fb8072" stroke="#000000" points="666.7205,-252 543.2795,-252 543.2795,-216 666.7205,-216 666.7205,-252"/>
<text text-anchor="middle" x="605" y="-229.8" font-family="Times,serif" font-size="14.00" fill="#000000">AdminComponent </text>
</g>
<!-- CoreModule&#45;&gt;AdminComponent  -->
<g id="edge5" class="edge">
<title>CoreModule&#45;&gt;AdminComponent </title>
<path fill="none" stroke="#000000" stroke-dasharray="5,2" d="M498.3862,-178C542.6869,-178 605,-178 605,-178 605,-178 605,-205.973 605,-205.973"/>
<polygon fill="#000000" stroke="#000000" points="601.5001,-205.973 605,-215.973 608.5001,-205.973 601.5001,-205.973"/>
</g>
<!-- EmployesComponent  -->
<g id="node7" class="node">
<title>EmployesComponent </title>
<polygon fill="#fb8072" stroke="#000000" points="525.3255,-252 384.6745,-252 384.6745,-216 525.3255,-216 525.3255,-252"/>
<text text-anchor="middle" x="455" y="-229.8" font-family="Times,serif" font-size="14.00" fill="#000000">EmployesComponent </text>
</g>
<!-- CoreModule&#45;&gt;EmployesComponent  -->
<g id="edge6" class="edge">
<title>CoreModule&#45;&gt;EmployesComponent </title>
<path fill="none" stroke="#000000" stroke-dasharray="5,2" d="M455,-187.1061C455,-187.1061 455,-205.991 455,-205.991"/>
<polygon fill="#000000" stroke="#000000" points="451.5001,-205.9909 455,-215.991 458.5001,-205.991 451.5001,-205.9909"/>
</g>
<!-- LoginComponent  -->
<g id="node8" class="node">
<title>LoginComponent </title>
<polygon fill="#fb8072" stroke="#000000" points="366.2759,-252 247.7241,-252 247.7241,-216 366.2759,-216 366.2759,-252"/>
<text text-anchor="middle" x="307" y="-229.8" font-family="Times,serif" font-size="14.00" fill="#000000">LoginComponent </text>
</g>
<!-- CoreModule&#45;&gt;LoginComponent  -->
<g id="edge7" class="edge">
<title>CoreModule&#45;&gt;LoginComponent </title>
<path fill="none" stroke="#000000" stroke-dasharray="5,2" d="M411.3956,-178C367.7393,-178 307,-178 307,-178 307,-178 307,-205.973 307,-205.973"/>
<polygon fill="#000000" stroke="#000000" points="303.5001,-205.973 307,-215.973 310.5001,-205.973 303.5001,-205.973"/>
</g>
<!-- CoreRootingModule -->
<g id="node5" class="node">
<title>CoreRootingModule</title>
<polygon fill="#8dd3c7" stroke="#000000" points="373.8795,-122 370.8795,-126 349.8795,-126 346.8795,-122 242.1205,-122 242.1205,-86 373.8795,-86 373.8795,-122"/>
<text text-anchor="middle" x="308" y="-99.8" font-family="Times,serif" font-size="14.00" fill="#000000">CoreRootingModule</text>
</g>
<!-- CoreRootingModule&#45;&gt;CoreModule -->
<g id="edge4" class="edge">
<title>CoreRootingModule&#45;&gt;CoreModule</title>
<path fill="none" stroke="#000000" d="M370.0388,-122.027C370.0388,-138.3976 370.0388,-160 370.0388,-160 370.0388,-160 401.5238,-160 401.5238,-160"/>
<polygon fill="#000000" stroke="#000000" points="401.5239,-163.5001 411.5238,-160 401.5238,-156.5001 401.5239,-163.5001"/>
</g>
<!-- AuthenticationService -->
<g id="node9" class="node">
<title>AuthenticationService</title>
<ellipse fill="#fdb462" stroke="#000000" cx="121" cy="-104" rx="97.2683" ry="18"/>
<text text-anchor="middle" x="121" y="-99.8" font-family="Times,serif" font-size="14.00" fill="#000000">AuthenticationService</text>
</g>
<!-- AuthenticationService&#45;&gt;CoreModule -->
<g id="edge8" class="edge">
<title>AuthenticationService&#45;&gt;CoreModule</title>
<path fill="none" stroke="#000000" d="M121,-122.1061C121,-141.3391 121,-169 121,-169 121,-169 401.6777,-169 401.6777,-169"/>
<polygon fill="#000000" stroke="#000000" points="401.6778,-172.5001 411.6777,-169 401.6777,-165.5001 401.6778,-172.5001"/>
</g>
</g>
</svg>
