<?xml version="1.0" encoding="UTF-8" standalone="no"?>
<!DOCTYPE svg PUBLIC "-//W3C//DTD SVG 1.1//EN"
 "http://www.w3.org/Graphics/SVG/1.1/DTD/svg11.dtd">
<!-- Generated by graphviz version 2.40.1 (20161225.0304)
 -->
<!-- Title: dependencies Pages: 1 -->
<svg width="609pt" height="284pt"
 viewBox="0.00 0.00 609.00 284.00" xmlns="http://www.w3.org/2000/svg" xmlns:xlink="http://www.w3.org/1999/xlink">
<g id="graph0" class="graph" transform="scale(1 1) rotate(0) translate(4 280)">
<title>dependencies</title>
<polygon fill="#ffffff" stroke="transparent" points="-4,4 -4,-280 605,-280 605,4 -4,4"/>
<text text-anchor="start" x="279.5091" y="-42.4" font-family="sans-serif" font-weight="bold" font-size="14.00" fill="#000000">Legend</text>
<polygon fill="#ffffb3" stroke="transparent" points="66.5,-10 66.5,-30 86.5,-30 86.5,-10 66.5,-10"/>
<text text-anchor="start" x="90.129" y="-15.4" font-family="sans-serif" font-size="14.00" fill="#000000"> &#160;Declarations</text>
<polygon fill="#8dd3c7" stroke="transparent" points="179.5,-10 179.5,-30 199.5,-30 199.5,-10 179.5,-10"/>
<text text-anchor="start" x="203.2251" y="-15.4" font-family="sans-serif" font-size="14.00" fill="#000000"> &#160;Module</text>
<polygon fill="#80b1d3" stroke="transparent" points="265.5,-10 265.5,-30 285.5,-30 285.5,-10 265.5,-10"/>
<text text-anchor="start" x="289.2812" y="-15.4" font-family="sans-serif" font-size="14.00" fill="#000000"> &#160;Bootstrap</text>
<polygon fill="#fdb462" stroke="transparent" points="362.5,-10 362.5,-30 382.5,-30 382.5,-10 362.5,-10"/>
<text text-anchor="start" x="386.1732" y="-15.4" font-family="sans-serif" font-size="14.00" fill="#000000"> &#160;Providers</text>
<polygon fill="#fb8072" stroke="transparent" points="458.5,-10 458.5,-30 478.5,-30 478.5,-10 458.5,-10"/>
<text text-anchor="start" x="482.2258" y="-15.4" font-family="sans-serif" font-size="14.00" fill="#000000"> &#160;Exports</text>
<g id="clust1" class="cluster">
<title>cluster_PlanningModule</title>
<polygon fill="none" stroke="#000000" stroke-dasharray="1,5" points="8,-70 8,-268 593,-268 593,-70 8,-70"/>
</g>
<g id="clust2" class="cluster">
<title>cluster_PlanningModule_declarations</title>
<polygon fill="none" stroke="#000000" points="437,-78 437,-130 585,-130 585,-78 437,-78"/>
</g>
<g id="clust4" class="cluster">
<title>cluster_PlanningModule_imports</title>
<polygon fill="none" stroke="#000000" points="16,-78 16,-130 429,-130 429,-78 16,-78"/>
</g>
<g id="clust5" class="cluster">
<title>cluster_PlanningModule_exports</title>
<polygon fill="none" stroke="#000000" points="177,-208 177,-260 447,-260 447,-208 177,-208"/>
</g>
<!-- PlanningComponent -->
<g id="node1" class="node">
<title>PlanningComponent</title>
<polygon fill="#ffffb3" stroke="#000000" points="576.6108,-122 445.3892,-122 445.3892,-86 576.6108,-86 576.6108,-122"/>
<text text-anchor="middle" x="511" y="-99.8" font-family="Times,serif" font-size="14.00" fill="#000000">PlanningComponent</text>
</g>
<!-- PlanningModule -->
<g id="node2" class="node">
<title>PlanningModule</title>
<polygon fill="#8dd3c7" stroke="#000000" points="358.8287,-187 355.8287,-191 334.8287,-191 331.8287,-187 249.1713,-187 249.1713,-151 358.8287,-151 358.8287,-187"/>
<text text-anchor="middle" x="304" y="-164.8" font-family="Times,serif" font-size="14.00" fill="#000000">PlanningModule</text>
</g>
<!-- PlanningComponent&#45;&gt;PlanningModule -->
<g id="edge1" class="edge">
<title>PlanningComponent&#45;&gt;PlanningModule</title>
<path fill="none" stroke="#000000" d="M511,-122.1061C511,-141.3391 511,-169 511,-169 511,-169 368.9287,-169 368.9287,-169"/>
<polygon fill="#000000" stroke="#000000" points="368.9288,-165.5001 358.9287,-169 368.9287,-172.5001 368.9288,-165.5001"/>
</g>
<!-- PlanningComponent  -->
<g id="node6" class="node">
<title>PlanningComponent </title>
<polygon fill="#fb8072" stroke="#000000" points="439.1114,-252 304.8886,-252 304.8886,-216 439.1114,-216 439.1114,-252"/>
<text text-anchor="middle" x="372" y="-229.8" font-family="Times,serif" font-size="14.00" fill="#000000">PlanningComponent </text>
</g>
<!-- PlanningModule&#45;&gt;PlanningComponent  -->
<g id="edge5" class="edge">
<title>PlanningModule&#45;&gt;PlanningComponent </title>
<path fill="none" stroke="#000000" stroke-dasharray="5,2" d="M331.6794,-187.1061C331.6794,-187.1061 331.6794,-205.991 331.6794,-205.991"/>
<polygon fill="#000000" stroke="#000000" points="328.1794,-205.9909 331.6794,-215.991 335.1794,-205.991 328.1794,-205.9909"/>
</g>
<!-- RouterModule  -->
<g id="node7" class="node">
<title>RouterModule </title>
<polygon fill="#fb8072" stroke="#000000" points="286.6523,-252 185.3477,-252 185.3477,-216 286.6523,-216 286.6523,-252"/>
<text text-anchor="middle" x="236" y="-229.8" font-family="Times,serif" font-size="14.00" fill="#000000">RouterModule </text>
</g>
<!-- PlanningModule&#45;&gt;RouterModule  -->
<g id="edge6" class="edge">
<title>PlanningModule&#45;&gt;RouterModule </title>
<path fill="none" stroke="#000000" stroke-dasharray="5,2" d="M267.956,-187.1061C267.956,-187.1061 267.956,-205.991 267.956,-205.991"/>
<polygon fill="#000000" stroke="#000000" points="264.4561,-205.9909 267.956,-215.991 271.4561,-205.991 264.4561,-205.9909"/>
</g>
<!-- CommonModule -->
<g id="node3" class="node">
<title>CommonModule</title>
<polygon fill="#8dd3c7" stroke="#000000" points="420.6681,-122 417.6681,-126 396.6681,-126 393.6681,-122 309.3319,-122 309.3319,-86 420.6681,-86 420.6681,-122"/>
<text text-anchor="middle" x="365" y="-99.8" font-family="Times,serif" font-size="14.00" fill="#000000">CommonModule</text>
</g>
<!-- CommonModule&#45;&gt;PlanningModule -->
<g id="edge2" class="edge">
<title>CommonModule&#45;&gt;PlanningModule</title>
<path fill="none" stroke="#000000" d="M333.9152,-122.1061C333.9152,-122.1061 333.9152,-140.991 333.9152,-140.991"/>
<polygon fill="#000000" stroke="#000000" points="330.4152,-140.9909 333.9152,-150.991 337.4152,-140.991 330.4152,-140.9909"/>
</g>
<!-- FormsModule -->
<g id="node4" class="node">
<title>FormsModule</title>
<polygon fill="#8dd3c7" stroke="#000000" points="291.8288,-122 288.8288,-126 267.8288,-126 264.8288,-122 196.1712,-122 196.1712,-86 291.8288,-86 291.8288,-122"/>
<text text-anchor="middle" x="244" y="-99.8" font-family="Times,serif" font-size="14.00" fill="#000000">FormsModule</text>
</g>
<!-- FormsModule&#45;&gt;PlanningModule -->
<g id="edge3" class="edge">
<title>FormsModule&#45;&gt;PlanningModule</title>
<path fill="none" stroke="#000000" d="M270.5,-122.1061C270.5,-122.1061 270.5,-140.991 270.5,-140.991"/>
<polygon fill="#000000" stroke="#000000" points="267.0001,-140.9909 270.5,-150.991 274.0001,-140.991 267.0001,-140.9909"/>
</g>
<!-- PlanningRoutingModule -->
<g id="node5" class="node">
<title>PlanningRoutingModule</title>
<polygon fill="#8dd3c7" stroke="#000000" points="178.4466,-122 175.4466,-126 154.4466,-126 151.4466,-122 23.5534,-122 23.5534,-86 178.4466,-86 178.4466,-122"/>
<text text-anchor="middle" x="101" y="-99.8" font-family="Times,serif" font-size="14.00" fill="#000000">PlanningRoutingModule</text>
</g>
<!-- PlanningRoutingModule&#45;&gt;PlanningModule -->
<g id="edge4" class="edge">
<title>PlanningRoutingModule&#45;&gt;PlanningModule</title>
<path fill="none" stroke="#000000" d="M101,-122.1061C101,-141.3391 101,-169 101,-169 101,-169 239.3327,-169 239.3327,-169"/>
<polygon fill="#000000" stroke="#000000" points="239.3327,-172.5001 249.3327,-169 239.3327,-165.5001 239.3327,-172.5001"/>
</g>
</g>
</svg>
