<?xml version="1.0" encoding="UTF-8" standalone="no"?>
<!DOCTYPE svg PUBLIC "-//W3C//DTD SVG 1.1//EN"
 "http://www.w3.org/Graphics/SVG/1.1/DTD/svg11.dtd">
<!-- Generated by graphviz version 2.40.1 (20161225.0304)
 -->
<!-- Title: dependencies Pages: 1 -->
<svg width="504pt" height="284pt"
 viewBox="0.00 0.00 504.00 284.00" xmlns="http://www.w3.org/2000/svg" xmlns:xlink="http://www.w3.org/1999/xlink">
<g id="graph0" class="graph" transform="scale(1 1) rotate(0) translate(4 280)">
<title>dependencies</title>
<polygon fill="#ffffff" stroke="transparent" points="-4,4 -4,-280 500,-280 500,4 -4,4"/>
<text text-anchor="start" x="227.0091" y="-42.4" font-family="sans-serif" font-weight="bold" font-size="14.00" fill="#000000">Legend</text>
<polygon fill="#ffffb3" stroke="transparent" points="14,-10 14,-30 34,-30 34,-10 14,-10"/>
<text text-anchor="start" x="37.629" y="-15.4" font-family="sans-serif" font-size="14.00" fill="#000000"> &#160;Declarations</text>
<polygon fill="#8dd3c7" stroke="transparent" points="127,-10 127,-30 147,-30 147,-10 127,-10"/>
<text text-anchor="start" x="150.7251" y="-15.4" font-family="sans-serif" font-size="14.00" fill="#000000"> &#160;Module</text>
<polygon fill="#80b1d3" stroke="transparent" points="213,-10 213,-30 233,-30 233,-10 213,-10"/>
<text text-anchor="start" x="236.7812" y="-15.4" font-family="sans-serif" font-size="14.00" fill="#000000"> &#160;Bootstrap</text>
<polygon fill="#fdb462" stroke="transparent" points="310,-10 310,-30 330,-30 330,-10 310,-10"/>
<text text-anchor="start" x="333.6732" y="-15.4" font-family="sans-serif" font-size="14.00" fill="#000000"> &#160;Providers</text>
<polygon fill="#fb8072" stroke="transparent" points="406,-10 406,-30 426,-30 426,-10 406,-10"/>
<text text-anchor="start" x="429.7258" y="-15.4" font-family="sans-serif" font-size="14.00" fill="#000000"> &#160;Exports</text>
<g id="clust1" class="cluster">
<title>cluster_CommandesModule</title>
<polygon fill="none" stroke="#000000" stroke-dasharray="1,5" points="57,-70 57,-268 439,-268 439,-70 57,-70"/>
</g>
<g id="clust2" class="cluster">
<title>cluster_CommandesModule_declarations</title>
<polygon fill="none" stroke="#000000" points="263,-78 263,-130 431,-130 431,-78 263,-78"/>
</g>
<g id="clust4" class="cluster">
<title>cluster_CommandesModule_imports</title>
<polygon fill="none" stroke="#000000" points="65,-78 65,-130 255,-130 255,-78 65,-78"/>
</g>
<g id="clust5" class="cluster">
<title>cluster_CommandesModule_exports</title>
<polygon fill="none" stroke="#000000" points="168,-208 168,-260 338,-260 338,-208 168,-208"/>
</g>
<!-- CommandesComponent -->
<g id="node1" class="node">
<title>CommandesComponent</title>
<polygon fill="#ffffb3" stroke="#000000" points="422.8243,-122 271.1757,-122 271.1757,-86 422.8243,-86 422.8243,-122"/>
<text text-anchor="middle" x="347" y="-99.8" font-family="Times,serif" font-size="14.00" fill="#000000">CommandesComponent</text>
</g>
<!-- CommandesModule -->
<g id="node2" class="node">
<title>CommandesModule</title>
<polygon fill="#8dd3c7" stroke="#000000" points="317.5422,-187 314.5422,-191 293.5422,-191 290.5422,-187 188.4578,-187 188.4578,-151 317.5422,-151 317.5422,-187"/>
<text text-anchor="middle" x="253" y="-164.8" font-family="Times,serif" font-size="14.00" fill="#000000">CommandesModule</text>
</g>
<!-- CommandesComponent&#45;&gt;CommandesModule -->
<g id="edge1" class="edge">
<title>CommandesComponent&#45;&gt;CommandesModule</title>
<path fill="none" stroke="#000000" d="M294.5544,-122.1061C294.5544,-122.1061 294.5544,-140.991 294.5544,-140.991"/>
<polygon fill="#000000" stroke="#000000" points="291.0544,-140.9909 294.5544,-150.991 298.0544,-140.991 291.0544,-140.9909"/>
</g>
<!-- CommandesComponent  -->
<g id="node4" class="node">
<title>CommandesComponent </title>
<polygon fill="#fb8072" stroke="#000000" points="330.3241,-252 175.6759,-252 175.6759,-216 330.3241,-216 330.3241,-252"/>
<text text-anchor="middle" x="253" y="-229.8" font-family="Times,serif" font-size="14.00" fill="#000000">CommandesComponent </text>
</g>
<!-- CommandesModule&#45;&gt;CommandesComponent  -->
<g id="edge3" class="edge">
<title>CommandesModule&#45;&gt;CommandesComponent </title>
<path fill="none" stroke="#000000" stroke-dasharray="5,2" d="M253,-187.1061C253,-187.1061 253,-205.991 253,-205.991"/>
<polygon fill="#000000" stroke="#000000" points="249.5001,-205.9909 253,-215.991 256.5001,-205.991 249.5001,-205.9909"/>
</g>
<!-- CommandesRoutingModule -->
<g id="node3" class="node">
<title>CommandesRoutingModule</title>
<polygon fill="#8dd3c7" stroke="#000000" points="247.1595,-122 244.1595,-126 223.1595,-126 220.1595,-122 72.8405,-122 72.8405,-86 247.1595,-86 247.1595,-122"/>
<text text-anchor="middle" x="160" y="-99.8" font-family="Times,serif" font-size="14.00" fill="#000000">CommandesRoutingModule</text>
</g>
<!-- CommandesRoutingModule&#45;&gt;CommandesModule -->
<g id="edge2" class="edge">
<title>CommandesRoutingModule&#45;&gt;CommandesModule</title>
<path fill="none" stroke="#000000" d="M217.7795,-122.1061C217.7795,-122.1061 217.7795,-140.991 217.7795,-140.991"/>
<polygon fill="#000000" stroke="#000000" points="214.2795,-140.9909 217.7795,-150.991 221.2795,-140.991 214.2795,-140.9909"/>
</g>
</g>
</svg>
