<?xml version="1.0" encoding="UTF-8" standalone="no"?>
<!DOCTYPE svg PUBLIC "-//W3C//DTD SVG 1.1//EN"
 "http://www.w3.org/Graphics/SVG/1.1/DTD/svg11.dtd">
<!-- Generated by graphviz version 2.40.1 (20161225.0304)
 -->
<!-- Title: dependencies Pages: 1 -->
<svg width="1012pt" height="284pt"
 viewBox="0.00 0.00 1012.00 284.00" xmlns="http://www.w3.org/2000/svg" xmlns:xlink="http://www.w3.org/1999/xlink">
<g id="graph0" class="graph" transform="scale(1 1) rotate(0) translate(4 280)">
<title>dependencies</title>
<polygon fill="#ffffff" stroke="transparent" points="-4,4 -4,-280 1008,-280 1008,4 -4,4"/>
<text text-anchor="start" x="481.0091" y="-42.4" font-family="sans-serif" font-weight="bold" font-size="14.00" fill="#000000">Legend</text>
<polygon fill="#ffffb3" stroke="transparent" points="268,-10 268,-30 288,-30 288,-10 268,-10"/>
<text text-anchor="start" x="291.629" y="-15.4" font-family="sans-serif" font-size="14.00" fill="#000000"> &#160;Declarations</text>
<polygon fill="#8dd3c7" stroke="transparent" points="381,-10 381,-30 401,-30 401,-10 381,-10"/>
<text text-anchor="start" x="404.7251" y="-15.4" font-family="sans-serif" font-size="14.00" fill="#000000"> &#160;Module</text>
<polygon fill="#80b1d3" stroke="transparent" points="467,-10 467,-30 487,-30 487,-10 467,-10"/>
<text text-anchor="start" x="490.7812" y="-15.4" font-family="sans-serif" font-size="14.00" fill="#000000"> &#160;Bootstrap</text>
<polygon fill="#fdb462" stroke="transparent" points="564,-10 564,-30 584,-30 584,-10 564,-10"/>
<text text-anchor="start" x="587.6732" y="-15.4" font-family="sans-serif" font-size="14.00" fill="#000000"> &#160;Providers</text>
<polygon fill="#fb8072" stroke="transparent" points="660,-10 660,-30 680,-30 680,-10 660,-10"/>
<text text-anchor="start" x="683.7258" y="-15.4" font-family="sans-serif" font-size="14.00" fill="#000000"> &#160;Exports</text>
<g id="clust1" class="cluster">
<title>cluster_CommandesModule</title>
<polygon fill="none" stroke="#000000" stroke-dasharray="1,5" points="8,-70 8,-268 996,-268 996,-70 8,-70"/>
</g>
<g id="clust2" class="cluster">
<title>cluster_CommandesModule_declarations</title>
<polygon fill="none" stroke="#000000" points="620,-78 620,-130 988,-130 988,-78 620,-78"/>
</g>
<g id="clust5" class="cluster">
<title>cluster_CommandesModule_imports</title>
<polygon fill="none" stroke="#000000" points="16,-78 16,-130 612,-130 612,-78 16,-78"/>
</g>
<g id="clust6" class="cluster">
<title>cluster_CommandesModule_exports</title>
<polygon fill="none" stroke="#000000" points="335,-208 335,-260 625,-260 625,-208 335,-208"/>
</g>
<!-- CommandesComponent -->
<g id="node1" class="node">
<title>CommandesComponent</title>
<polygon fill="#ffffb3" stroke="#000000" points="979.8243,-122 828.1757,-122 828.1757,-86 979.8243,-86 979.8243,-122"/>
<text text-anchor="middle" x="904" y="-99.8" font-family="Times,serif" font-size="14.00" fill="#000000">CommandesComponent</text>
</g>
<!-- CommandesModule -->
<g id="node3" class="node">
<title>CommandesModule</title>
<polygon fill="#8dd3c7" stroke="#000000" points="531.5422,-187 528.5422,-191 507.5422,-191 504.5422,-187 402.4578,-187 402.4578,-151 531.5422,-151 531.5422,-187"/>
<text text-anchor="middle" x="467" y="-164.8" font-family="Times,serif" font-size="14.00" fill="#000000">CommandesModule</text>
</g>
<!-- CommandesComponent&#45;&gt;CommandesModule -->
<g id="edge1" class="edge">
<title>CommandesComponent&#45;&gt;CommandesModule</title>
<path fill="none" stroke="#000000" d="M904,-122.2843C904,-143.3211 904,-175 904,-175 904,-175 541.9514,-175 541.9514,-175"/>
<polygon fill="#000000" stroke="#000000" points="541.9515,-171.5001 531.9514,-175 541.9514,-178.5001 541.9515,-171.5001"/>
</g>
<!-- DetailscommandeComponent -->
<g id="node2" class="node">
<title>DetailscommandeComponent</title>
<polygon fill="#ffffb3" stroke="#000000" points="810.4101,-122 627.5899,-122 627.5899,-86 810.4101,-86 810.4101,-122"/>
<text text-anchor="middle" x="719" y="-99.8" font-family="Times,serif" font-size="14.00" fill="#000000">DetailscommandeComponent</text>
</g>
<!-- DetailscommandeComponent&#45;&gt;CommandesModule -->
<g id="edge2" class="edge">
<title>DetailscommandeComponent&#45;&gt;CommandesModule</title>
<path fill="none" stroke="#000000" d="M719,-122.0225C719,-139.3734 719,-163 719,-163 719,-163 541.569,-163 541.569,-163"/>
<polygon fill="#000000" stroke="#000000" points="541.5691,-159.5001 531.569,-163 541.569,-166.5001 541.5691,-159.5001"/>
</g>
<!-- CommandesComponent  -->
<g id="node8" class="node">
<title>CommandesComponent </title>
<polygon fill="#fb8072" stroke="#000000" points="617.3241,-252 462.6759,-252 462.6759,-216 617.3241,-216 617.3241,-252"/>
<text text-anchor="middle" x="540" y="-229.8" font-family="Times,serif" font-size="14.00" fill="#000000">CommandesComponent </text>
</g>
<!-- CommandesModule&#45;&gt;CommandesComponent  -->
<g id="edge7" class="edge">
<title>CommandesModule&#45;&gt;CommandesComponent </title>
<path fill="none" stroke="#000000" stroke-dasharray="5,2" d="M497.1794,-187.1061C497.1794,-187.1061 497.1794,-205.991 497.1794,-205.991"/>
<polygon fill="#000000" stroke="#000000" points="493.6794,-205.9909 497.1794,-215.991 500.6794,-205.991 493.6794,-205.9909"/>
</g>
<!-- RouterModule  -->
<g id="node9" class="node">
<title>RouterModule </title>
<polygon fill="#fb8072" stroke="#000000" points="444.6523,-252 343.3477,-252 343.3477,-216 444.6523,-216 444.6523,-252"/>
<text text-anchor="middle" x="394" y="-229.8" font-family="Times,serif" font-size="14.00" fill="#000000">RouterModule </text>
</g>
<!-- CommandesModule&#45;&gt;RouterModule  -->
<g id="edge8" class="edge">
<title>CommandesModule&#45;&gt;RouterModule </title>
<path fill="none" stroke="#000000" stroke-dasharray="5,2" d="M423.4027,-187.1061C423.4027,-187.1061 423.4027,-205.991 423.4027,-205.991"/>
<polygon fill="#000000" stroke="#000000" points="419.9028,-205.9909 423.4027,-215.991 426.9028,-205.991 419.9028,-205.9909"/>
</g>
<!-- CommonModule -->
<g id="node4" class="node">
<title>CommonModule</title>
<polygon fill="#8dd3c7" stroke="#000000" points="603.6681,-122 600.6681,-126 579.6681,-126 576.6681,-122 492.3319,-122 492.3319,-86 603.6681,-86 603.6681,-122"/>
<text text-anchor="middle" x="548" y="-99.8" font-family="Times,serif" font-size="14.00" fill="#000000">CommonModule</text>
</g>
<!-- CommonModule&#45;&gt;CommandesModule -->
<g id="edge3" class="edge">
<title>CommonModule&#45;&gt;CommandesModule</title>
<path fill="none" stroke="#000000" d="M511.9685,-122.1061C511.9685,-122.1061 511.9685,-140.991 511.9685,-140.991"/>
<polygon fill="#000000" stroke="#000000" points="508.4685,-140.9909 511.9685,-150.991 515.4685,-140.991 508.4685,-140.9909"/>
</g>
<!-- CommandesRoutingModule -->
<g id="node5" class="node">
<title>CommandesRoutingModule</title>
<polygon fill="#8dd3c7" stroke="#000000" points="474.1595,-122 471.1595,-126 450.1595,-126 447.1595,-122 299.8405,-122 299.8405,-86 474.1595,-86 474.1595,-122"/>
<text text-anchor="middle" x="387" y="-99.8" font-family="Times,serif" font-size="14.00" fill="#000000">CommandesRoutingModule</text>
</g>
<!-- CommandesRoutingModule&#45;&gt;CommandesModule -->
<g id="edge4" class="edge">
<title>CommandesRoutingModule&#45;&gt;CommandesModule</title>
<path fill="none" stroke="#000000" d="M438.2795,-122.1061C438.2795,-122.1061 438.2795,-140.991 438.2795,-140.991"/>
<polygon fill="#000000" stroke="#000000" points="434.7795,-140.9909 438.2795,-150.991 441.7795,-140.991 434.7795,-140.9909"/>
</g>
<!-- ReactiveFormsModule -->
<g id="node6" class="node">
<title>ReactiveFormsModule</title>
<polygon fill="#8dd3c7" stroke="#000000" points="282.3047,-122 279.3047,-126 258.3047,-126 255.3047,-122 137.6953,-122 137.6953,-86 282.3047,-86 282.3047,-122"/>
<text text-anchor="middle" x="210" y="-99.8" font-family="Times,serif" font-size="14.00" fill="#000000">ReactiveFormsModule</text>
</g>
<!-- ReactiveFormsModule&#45;&gt;CommandesModule -->
<g id="edge5" class="edge">
<title>ReactiveFormsModule&#45;&gt;CommandesModule</title>
<path fill="none" stroke="#000000" d="M210,-122.0225C210,-139.3734 210,-163 210,-163 210,-163 392.148,-163 392.148,-163"/>
<polygon fill="#000000" stroke="#000000" points="392.1481,-166.5001 402.148,-163 392.148,-159.5001 392.1481,-166.5001"/>
</g>
<!-- FormsModule -->
<g id="node7" class="node">
<title>FormsModule</title>
<polygon fill="#8dd3c7" stroke="#000000" points="119.8288,-122 116.8288,-126 95.8288,-126 92.8288,-122 24.1712,-122 24.1712,-86 119.8288,-86 119.8288,-122"/>
<text text-anchor="middle" x="72" y="-99.8" font-family="Times,serif" font-size="14.00" fill="#000000">FormsModule</text>
</g>
<!-- FormsModule&#45;&gt;CommandesModule -->
<g id="edge6" class="edge">
<title>FormsModule&#45;&gt;CommandesModule</title>
<path fill="none" stroke="#000000" d="M72,-122.2843C72,-143.3211 72,-175 72,-175 72,-175 392.2161,-175 392.2161,-175"/>
<polygon fill="#000000" stroke="#000000" points="392.2161,-178.5001 402.2161,-175 392.2161,-171.5001 392.2161,-178.5001"/>
</g>
</g>
</svg>
