<?xml version="1.0" encoding="UTF-8" standalone="no"?>
<!DOCTYPE svg PUBLIC "-//W3C//DTD SVG 1.1//EN"
 "http://www.w3.org/Graphics/SVG/1.1/DTD/svg11.dtd">
<!-- Generated by graphviz version 2.40.1 (20161225.0304)
 -->
<!-- Title: dependencies Pages: 1 -->
<svg width="683pt" height="284pt"
 viewBox="0.00 0.00 683.00 284.00" xmlns="http://www.w3.org/2000/svg" xmlns:xlink="http://www.w3.org/1999/xlink">
<g id="graph0" class="graph" transform="scale(1 1) rotate(0) translate(4 280)">
<title>dependencies</title>
<polygon fill="#ffffff" stroke="transparent" points="-4,4 -4,-280 679,-280 679,4 -4,4"/>
<text text-anchor="start" x="316.5091" y="-42.4" font-family="sans-serif" font-weight="bold" font-size="14.00" fill="#000000">Legend</text>
<polygon fill="#ffffb3" stroke="transparent" points="103.5,-10 103.5,-30 123.5,-30 123.5,-10 103.5,-10"/>
<text text-anchor="start" x="127.129" y="-15.4" font-family="sans-serif" font-size="14.00" fill="#000000"> &#160;Declarations</text>
<polygon fill="#8dd3c7" stroke="transparent" points="216.5,-10 216.5,-30 236.5,-30 236.5,-10 216.5,-10"/>
<text text-anchor="start" x="240.2251" y="-15.4" font-family="sans-serif" font-size="14.00" fill="#000000"> &#160;Module</text>
<polygon fill="#80b1d3" stroke="transparent" points="302.5,-10 302.5,-30 322.5,-30 322.5,-10 302.5,-10"/>
<text text-anchor="start" x="326.2812" y="-15.4" font-family="sans-serif" font-size="14.00" fill="#000000"> &#160;Bootstrap</text>
<polygon fill="#fdb462" stroke="transparent" points="399.5,-10 399.5,-30 419.5,-30 419.5,-10 399.5,-10"/>
<text text-anchor="start" x="423.1732" y="-15.4" font-family="sans-serif" font-size="14.00" fill="#000000"> &#160;Providers</text>
<polygon fill="#fb8072" stroke="transparent" points="495.5,-10 495.5,-30 515.5,-30 515.5,-10 495.5,-10"/>
<text text-anchor="start" x="519.2258" y="-15.4" font-family="sans-serif" font-size="14.00" fill="#000000"> &#160;Exports</text>
<g id="clust1" class="cluster">
<title>cluster_AppModule</title>
<polygon fill="none" stroke="#000000" stroke-dasharray="1,5" points="8,-70 8,-268 667,-268 667,-70 8,-70"/>
</g>
<g id="clust2" class="cluster">
<title>cluster_AppModule_declarations</title>
<polygon fill="none" stroke="#000000" points="251,-78 251,-130 659,-130 659,-78 251,-78"/>
</g>
<g id="clust6" class="cluster">
<title>cluster_AppModule_imports</title>
<polygon fill="none" stroke="#000000" points="16,-78 16,-130 243,-130 243,-78 16,-78"/>
</g>
<g id="clust8" class="cluster">
<title>cluster_AppModule_bootstrap</title>
<polygon fill="none" stroke="#000000" points="261,-208 261,-260 385,-260 385,-208 261,-208"/>
</g>
<!-- AppComponent -->
<g id="node1" class="node">
<title>AppComponent</title>
<polygon fill="#ffffb3" stroke="#000000" points="650.9399,-122 545.0601,-122 545.0601,-86 650.9399,-86 650.9399,-122"/>
<text text-anchor="middle" x="598" y="-99.8" font-family="Times,serif" font-size="14.00" fill="#000000">AppComponent</text>
</g>
<!-- AppModule -->
<g id="node4" class="node">
<title>AppModule</title>
<polygon fill="#8dd3c7" stroke="#000000" points="364.6571,-187 361.6571,-191 340.6571,-191 337.6571,-187 281.3429,-187 281.3429,-151 364.6571,-151 364.6571,-187"/>
<text text-anchor="middle" x="323" y="-164.8" font-family="Times,serif" font-size="14.00" fill="#000000">AppModule</text>
</g>
<!-- AppComponent&#45;&gt;AppModule -->
<g id="edge1" class="edge">
<title>AppComponent&#45;&gt;AppModule</title>
<path fill="none" stroke="#000000" d="M598,-122.2843C598,-143.3211 598,-175 598,-175 598,-175 374.7666,-175 374.7666,-175"/>
<polygon fill="#000000" stroke="#000000" points="374.7666,-171.5001 364.7666,-175 374.7665,-178.5001 374.7666,-171.5001"/>
</g>
<!-- HeaderComponent -->
<g id="node2" class="node">
<title>HeaderComponent</title>
<polygon fill="#ffffb3" stroke="#000000" points="526.7437,-122 405.2563,-122 405.2563,-86 526.7437,-86 526.7437,-122"/>
<text text-anchor="middle" x="466" y="-99.8" font-family="Times,serif" font-size="14.00" fill="#000000">HeaderComponent</text>
</g>
<!-- HeaderComponent&#45;&gt;AppModule -->
<g id="edge2" class="edge">
<title>HeaderComponent&#45;&gt;AppModule</title>
<path fill="none" stroke="#000000" d="M466,-122.0225C466,-139.3734 466,-163 466,-163 466,-163 374.7459,-163 374.7459,-163"/>
<polygon fill="#000000" stroke="#000000" points="374.746,-159.5001 364.7459,-163 374.7459,-166.5001 374.746,-159.5001"/>
</g>
<!-- PipeFiltreDatesPipe -->
<g id="node3" class="node">
<title>PipeFiltreDatesPipe</title>
<polygon fill="#ffffb3" stroke="#000000" points="386.9762,-122 259.0238,-122 259.0238,-86 386.9762,-86 386.9762,-122"/>
<text text-anchor="middle" x="323" y="-99.8" font-family="Times,serif" font-size="14.00" fill="#000000">PipeFiltreDatesPipe</text>
</g>
<!-- PipeFiltreDatesPipe&#45;&gt;AppModule -->
<g id="edge3" class="edge">
<title>PipeFiltreDatesPipe&#45;&gt;AppModule</title>
<path fill="none" stroke="#000000" d="M323,-122.1061C323,-122.1061 323,-140.991 323,-140.991"/>
<polygon fill="#000000" stroke="#000000" points="319.5001,-140.9909 323,-150.991 326.5001,-140.991 319.5001,-140.9909"/>
</g>
<!-- AppComponent  -->
<g id="node7" class="node">
<title>AppComponent </title>
<polygon fill="#80b1d3" stroke="#000000" points="377.439,-252 268.561,-252 268.561,-216 377.439,-216 377.439,-252"/>
<text text-anchor="middle" x="323" y="-229.8" font-family="Times,serif" font-size="14.00" fill="#000000">AppComponent </text>
</g>
<!-- AppModule&#45;&gt;AppComponent  -->
<g id="edge6" class="edge">
<title>AppModule&#45;&gt;AppComponent </title>
<path fill="none" stroke="#000000" stroke-dasharray="1,5" d="M323,-187.1061C323,-187.1061 323,-205.991 323,-205.991"/>
<polygon fill="#000000" stroke="#000000" points="319.5001,-205.9909 323,-215.991 326.5001,-205.991 319.5001,-205.9909"/>
</g>
<!-- CoreModule -->
<g id="node5" class="node">
<title>CoreModule</title>
<polygon fill="#8dd3c7" stroke="#000000" points="235.2619,-122 232.2619,-126 211.2619,-126 208.2619,-122 148.7381,-122 148.7381,-86 235.2619,-86 235.2619,-122"/>
<text text-anchor="middle" x="192" y="-99.8" font-family="Times,serif" font-size="14.00" fill="#000000">CoreModule</text>
</g>
<!-- CoreModule&#45;&gt;AppModule -->
<g id="edge4" class="edge">
<title>CoreModule&#45;&gt;AppModule</title>
<path fill="none" stroke="#000000" d="M192,-122.0225C192,-139.3734 192,-163 192,-163 192,-163 271.1906,-163 271.1906,-163"/>
<polygon fill="#000000" stroke="#000000" points="271.1906,-166.5001 281.1906,-163 271.1906,-159.5001 271.1906,-166.5001"/>
</g>
<!-- BrowserModule -->
<g id="node6" class="node">
<title>BrowserModule</title>
<polygon fill="#8dd3c7" stroke="#000000" points="130.4734,-122 127.4734,-126 106.4734,-126 103.4734,-122 23.5266,-122 23.5266,-86 130.4734,-86 130.4734,-122"/>
<text text-anchor="middle" x="77" y="-99.8" font-family="Times,serif" font-size="14.00" fill="#000000">BrowserModule</text>
</g>
<!-- BrowserModule&#45;&gt;AppModule -->
<g id="edge5" class="edge">
<title>BrowserModule&#45;&gt;AppModule</title>
<path fill="none" stroke="#000000" d="M77,-122.2843C77,-143.3211 77,-175 77,-175 77,-175 271.2695,-175 271.2695,-175"/>
<polygon fill="#000000" stroke="#000000" points="271.2695,-178.5001 281.2695,-175 271.2694,-171.5001 271.2695,-178.5001"/>
</g>
</g>
</svg>
