<?xml version="1.0" encoding="UTF-8" standalone="no"?>
<!DOCTYPE svg PUBLIC "-//W3C//DTD SVG 1.1//EN"
 "http://www.w3.org/Graphics/SVG/1.1/DTD/svg11.dtd">
<!-- Generated by graphviz version 2.40.1 (20161225.0304)
 -->
<!-- Title: dependencies Pages: 1 -->
<svg width="771pt" height="284pt"
 viewBox="0.00 0.00 771.00 284.00" xmlns="http://www.w3.org/2000/svg" xmlns:xlink="http://www.w3.org/1999/xlink">
<g id="graph0" class="graph" transform="scale(1 1) rotate(0) translate(4 280)">
<title>dependencies</title>
<polygon fill="#ffffff" stroke="transparent" points="-4,4 -4,-280 767,-280 767,4 -4,4"/>
<text text-anchor="start" x="360.5091" y="-42.4" font-family="sans-serif" font-weight="bold" font-size="14.00" fill="#000000">Legend</text>
<polygon fill="#ffffb3" stroke="transparent" points="147.5,-10 147.5,-30 167.5,-30 167.5,-10 147.5,-10"/>
<text text-anchor="start" x="171.129" y="-15.4" font-family="sans-serif" font-size="14.00" fill="#000000"> &#160;Declarations</text>
<polygon fill="#8dd3c7" stroke="transparent" points="260.5,-10 260.5,-30 280.5,-30 280.5,-10 260.5,-10"/>
<text text-anchor="start" x="284.2251" y="-15.4" font-family="sans-serif" font-size="14.00" fill="#000000"> &#160;Module</text>
<polygon fill="#80b1d3" stroke="transparent" points="346.5,-10 346.5,-30 366.5,-30 366.5,-10 346.5,-10"/>
<text text-anchor="start" x="370.2812" y="-15.4" font-family="sans-serif" font-size="14.00" fill="#000000"> &#160;Bootstrap</text>
<polygon fill="#fdb462" stroke="transparent" points="443.5,-10 443.5,-30 463.5,-30 463.5,-10 443.5,-10"/>
<text text-anchor="start" x="467.1732" y="-15.4" font-family="sans-serif" font-size="14.00" fill="#000000"> &#160;Providers</text>
<polygon fill="#fb8072" stroke="transparent" points="539.5,-10 539.5,-30 559.5,-30 559.5,-10 539.5,-10"/>
<text text-anchor="start" x="563.2258" y="-15.4" font-family="sans-serif" font-size="14.00" fill="#000000"> &#160;Exports</text>
<g id="clust1" class="cluster">
<title>cluster_AppModule</title>
<polygon fill="none" stroke="#000000" stroke-dasharray="1,5" points="8,-70 8,-268 755,-268 755,-70 8,-70"/>
</g>
<g id="clust2" class="cluster">
<title>cluster_AppModule_declarations</title>
<polygon fill="none" stroke="#000000" points="126,-78 126,-130 747,-130 747,-78 126,-78"/>
</g>
<g id="clust7" class="cluster">
<title>cluster_AppModule_imports</title>
<polygon fill="none" stroke="#000000" points="16,-78 16,-130 118,-130 118,-78 16,-78"/>
</g>
<g id="clust9" class="cluster">
<title>cluster_AppModule_bootstrap</title>
<polygon fill="none" stroke="#000000" points="301,-208 301,-260 425,-260 425,-208 301,-208"/>
</g>
<!-- AppComponent -->
<g id="node1" class="node">
<title>AppComponent</title>
<polygon fill="#ffffb3" stroke="#000000" points="738.9399,-122 633.0601,-122 633.0601,-86 738.9399,-86 738.9399,-122"/>
<text text-anchor="middle" x="686" y="-99.8" font-family="Times,serif" font-size="14.00" fill="#000000">AppComponent</text>
</g>
<!-- AppModule -->
<g id="node5" class="node">
<title>AppModule</title>
<polygon fill="#8dd3c7" stroke="#000000" points="404.6571,-187 401.6571,-191 380.6571,-191 377.6571,-187 321.3429,-187 321.3429,-151 404.6571,-151 404.6571,-187"/>
<text text-anchor="middle" x="363" y="-164.8" font-family="Times,serif" font-size="14.00" fill="#000000">AppModule</text>
</g>
<!-- AppComponent&#45;&gt;AppModule -->
<g id="edge1" class="edge">
<title>AppComponent&#45;&gt;AppModule</title>
<path fill="none" stroke="#000000" d="M686,-122.2843C686,-143.3211 686,-175 686,-175 686,-175 414.8955,-175 414.8955,-175"/>
<polygon fill="#000000" stroke="#000000" points="414.8955,-171.5001 404.8955,-175 414.8954,-178.5001 414.8955,-171.5001"/>
</g>
<!-- ComptabiliteComponent -->
<g id="node2" class="node">
<title>ComptabiliteComponent</title>
<polygon fill="#ffffb3" stroke="#000000" points="615.4424,-122 460.5576,-122 460.5576,-86 615.4424,-86 615.4424,-122"/>
<text text-anchor="middle" x="538" y="-99.8" font-family="Times,serif" font-size="14.00" fill="#000000">ComptabiliteComponent</text>
</g>
<!-- ComptabiliteComponent&#45;&gt;AppModule -->
<g id="edge2" class="edge">
<title>ComptabiliteComponent&#45;&gt;AppModule</title>
<path fill="none" stroke="#000000" d="M538,-122.0225C538,-139.3734 538,-163 538,-163 538,-163 414.9169,-163 414.9169,-163"/>
<polygon fill="#000000" stroke="#000000" points="414.9169,-159.5001 404.9169,-163 414.9168,-166.5001 414.9169,-159.5001"/>
</g>
<!-- GestionstocksComponent -->
<g id="node3" class="node">
<title>GestionstocksComponent</title>
<polygon fill="#ffffb3" stroke="#000000" points="442.8738,-122 283.1262,-122 283.1262,-86 442.8738,-86 442.8738,-122"/>
<text text-anchor="middle" x="363" y="-99.8" font-family="Times,serif" font-size="14.00" fill="#000000">GestionstocksComponent</text>
</g>
<!-- GestionstocksComponent&#45;&gt;AppModule -->
<g id="edge3" class="edge">
<title>GestionstocksComponent&#45;&gt;AppModule</title>
<path fill="none" stroke="#000000" d="M363,-122.1061C363,-122.1061 363,-140.991 363,-140.991"/>
<polygon fill="#000000" stroke="#000000" points="359.5001,-140.9909 363,-150.991 366.5001,-140.991 359.5001,-140.9909"/>
</g>
<!-- PlanningComponent -->
<g id="node4" class="node">
<title>PlanningComponent</title>
<polygon fill="#ffffb3" stroke="#000000" points="265.6108,-122 134.3892,-122 134.3892,-86 265.6108,-86 265.6108,-122"/>
<text text-anchor="middle" x="200" y="-99.8" font-family="Times,serif" font-size="14.00" fill="#000000">PlanningComponent</text>
</g>
<!-- PlanningComponent&#45;&gt;AppModule -->
<g id="edge4" class="edge">
<title>PlanningComponent&#45;&gt;AppModule</title>
<path fill="none" stroke="#000000" d="M200,-122.0225C200,-139.3734 200,-163 200,-163 200,-163 311.0234,-163 311.0234,-163"/>
<polygon fill="#000000" stroke="#000000" points="311.0235,-166.5001 321.0234,-163 311.0234,-159.5001 311.0235,-166.5001"/>
</g>
<!-- AppComponent  -->
<g id="node7" class="node">
<title>AppComponent </title>
<polygon fill="#80b1d3" stroke="#000000" points="417.439,-252 308.561,-252 308.561,-216 417.439,-216 417.439,-252"/>
<text text-anchor="middle" x="363" y="-229.8" font-family="Times,serif" font-size="14.00" fill="#000000">AppComponent </text>
</g>
<!-- AppModule&#45;&gt;AppComponent  -->
<g id="edge6" class="edge">
<title>AppModule&#45;&gt;AppComponent </title>
<path fill="none" stroke="#000000" stroke-dasharray="1,5" d="M363,-187.1061C363,-187.1061 363,-205.991 363,-205.991"/>
<polygon fill="#000000" stroke="#000000" points="359.5001,-205.9909 363,-215.991 366.5001,-205.991 359.5001,-205.9909"/>
</g>
<!-- CoreModule -->
<g id="node6" class="node">
<title>CoreModule</title>
<polygon fill="#8dd3c7" stroke="#000000" points="110.2619,-122 107.2619,-126 86.2619,-126 83.2619,-122 23.7381,-122 23.7381,-86 110.2619,-86 110.2619,-122"/>
<text text-anchor="middle" x="67" y="-99.8" font-family="Times,serif" font-size="14.00" fill="#000000">CoreModule</text>
</g>
<!-- CoreModule&#45;&gt;AppModule -->
<g id="edge5" class="edge">
<title>CoreModule&#45;&gt;AppModule</title>
<path fill="none" stroke="#000000" d="M67,-122.2843C67,-143.3211 67,-175 67,-175 67,-175 311.2182,-175 311.2182,-175"/>
<polygon fill="#000000" stroke="#000000" points="311.2183,-178.5001 321.2182,-175 311.2182,-171.5001 311.2183,-178.5001"/>
</g>
</g>
</svg>
